<svg width="499" height="305" viewBox="0 0 499 305" fill="none" xmlns="http://www.w3.org/2000/svg">
<g clip-path="url(#clip0_2325_33940)">
<mask id="mask0_2325_33940" style="mask-type:luminance" maskUnits="userSpaceOnUse" x="0" y="0" width="499" height="305">
<path d="M495 0H4C1.79086 0 0 1.79086 0 4V301C0 303.209 1.79086 305 4 305H495C497.209 305 499 303.209 499 301V4C499 1.79086 497.209 0 495 0Z" fill="white"/>
</mask>
<g mask="url(#mask0_2325_33940)">
<path d="M172.061 26.5H296.227C301.715 26.5 306.091 30.7524 306.091 35.9089V98.3622C306.091 103.519 301.715 107.771 296.227 107.771H172.061C166.572 107.771 162.197 103.519 162.197 98.3622V35.9089C162.197 30.7524 166.572 26.5 172.061 26.5Z" fill="#F4F4F4" stroke="#E0E0E0" stroke-width="2"/>
<path d="M338.864 26.5H432C437.488 26.5 441.864 30.7524 441.864 35.9089V98.3622C441.864 103.519 437.488 107.771 432 107.771H338.864C333.375 107.771 329 103.519 329 98.3622V35.9089C329 30.7524 333.375 26.5 338.864 26.5Z" fill="#F4F4F4" stroke="#E0E0E0" stroke-width="2"/>
<path d="M338.864 130H433C438.488 130 442.864 134.252 442.864 139.409V201.862C442.864 207.019 438.488 211.271 433 211.271H338.864C333.375 211.271 329 207.019 329 201.862V139.409C329 134.252 333.375 130 338.864 130Z" fill="#F4F4F4" stroke="#E0E0E0" stroke-width="2"/>
<path d="M227.935 130.594H293.122C298.611 130.594 302.986 134.846 302.986 140.003V202.456C302.986 207.612 298.611 211.865 293.122 211.865H227.935C222.446 211.865 218.071 207.612 218.071 202.456V140.003C218.071 134.846 222.446 130.594 227.935 130.594Z" fill="#F4F4F4" stroke="#E0E0E0" stroke-width="2"/>
<path d="M61.865 130.594H186.03C191.519 130.594 195.895 134.846 195.895 140.003V202.456C195.895 207.612 191.519 211.865 186.03 211.865H61.865C56.376 211.865 52 207.612 52 202.456V140.003C52 134.846 56.376 130.594 61.865 130.594Z" fill="#F4F4F4" stroke="#E0E0E0" stroke-width="2"/>
<path d="M64.969 26.5H130.156C135.645 26.5 140.02 30.7524 140.02 35.9089V98.3622C140.02 103.519 135.645 107.771 130.156 107.771H64.969C59.48 107.771 55.105 103.519 55.105 98.3622V35.9089C55.105 30.7524 59.48 26.5 64.969 26.5Z" fill="#F4F4F4" stroke="#E0E0E0" stroke-width="2"/>
<path d="M123.946 37.3984H71.175C68.604 37.3984 66.519 39.3957 66.519 41.8594V92.4169C66.519 94.8806 68.604 96.8778 71.175 96.8778H123.946C126.517 96.8778 128.602 94.8806 128.602 92.4169V41.8594C128.602 39.3957 126.517 37.3984 123.946 37.3984Z" fill="#E0E0E0"/>
<path d="M249.664 37.3984H196.894C194.323 37.3984 192.238 39.3957 192.238 41.8594V92.4169C192.238 94.8806 194.323 96.8778 196.894 96.8778H249.664C252.236 96.8778 254.321 94.8806 254.321 92.4169V41.8594C254.321 39.3957 252.236 37.3984 249.664 37.3984Z" fill="#E0E0E0"/>
<path d="M426.45 37H344.551C342.037 37 340 39.0148 340 41.5V92.5001C340 94.9853 342.037 97 344.551 97H426.45C428.964 97 431 94.9853 431 92.5001V41.5C431 39.0148 428.964 37 426.45 37Z" fill="#E0E0E0"/>
<path d="M395.558 141.492H342.788C340.216 141.492 338.132 143.489 338.132 145.953V196.511C338.132 198.974 340.216 200.972 342.788 200.972H395.558C398.13 200.972 400.214 198.974 400.214 196.511V145.953C400.214 143.489 398.13 141.492 395.558 141.492Z" fill="#E0E0E0"/>
<path d="M434 141.492H415.656C413.084 141.492 411 143.489 411 145.953V196.511C411 198.974 413.084 200.972 415.656 200.972H434C436.572 200.972 438.656 198.974 438.656 196.511V145.953C438.656 143.489 436.572 141.492 434 141.492Z" fill="#E0E0E0"/>
<path d="M300.434 37.3984H269.392C266.821 37.3984 264.736 39.3957 264.736 41.8594V92.4169C264.736 94.8806 266.821 96.8778 269.392 96.8778H300.434C303.005 96.8778 305.09 94.8806 305.09 92.4169V41.8594C305.09 39.3957 303.005 37.3984 300.434 37.3984Z" fill="#E0E0E0"/>
<path d="M167.25 96.5H177.75C180.649 96.5 183 94.5189 183 92.075V41.925C183 39.4811 180.649 37.5 177.75 37.5H167.25C164.351 37.5 162 39.4811 162 41.925V92.075C162 94.5189 164.351 96.5 167.25 96.5Z" fill="#E0E0E0"/>
<path d="M150.331 142.977H97.5608C94.9898 142.977 92.9048 144.974 92.9048 147.438V197.995C92.9048 200.459 94.9898 202.456 97.5608 202.456H150.331C152.903 202.456 154.988 200.459 154.988 197.995V147.438C154.988 144.974 152.903 142.977 150.331 142.977Z" fill="#E0E0E0"/>
<path d="M286.915 141.492H234.145C231.574 141.492 229.489 143.489 229.489 145.953V196.511C229.489 198.974 231.574 200.972 234.145 200.972H286.915C289.487 200.972 291.572 198.974 291.572 196.511V145.953C291.572 143.489 289.487 141.492 286.915 141.492Z" fill="#E0E0E0"/>
<path d="M173.753 142.242H196.111V201.721H173.753C169.392 201.721 165.845 198.331 165.845 194.145V149.811C165.845 145.632 169.384 142.234 173.753 142.234V142.242Z" fill="#E0E0E0"/>
<path d="M73.358 201.979H51V142.5H73.358C77.719 142.5 81.265 145.89 81.265 150.076V194.411C81.265 198.589 77.727 201.987 73.358 201.987V201.979Z" fill="#E0E0E0"/>
<path d="M78.0542 51.5859H104.959V73.0654H81.1582C79.4432 73.0654 78.0542 71.7346 78.0542 70.0914V51.5859Z" fill="black"/>
<path d="M81.104 47.5H101.801C103.516 47.5 104.905 48.8309 104.905 50.474V51.7974H78V50.474C78 48.8309 79.389 47.5 81.104 47.5Z" fill="url(#paint0_linear_2325_33940)"/>
<path d="M87.2188 56.1719H100.474" stroke="#F4F4F4" stroke-width="0.8" stroke-linecap="round" stroke-linejoin="round"/>
<path d="M84.5661 57.8587L82.7891 56.1635L84.5661 54.4609" stroke="#F4F4F4" stroke-width="0.8" stroke-linecap="round" stroke-linejoin="round"/>
<path d="M82.541 60.4531H100.475" stroke="url(#paint1_linear_2325_33940)" stroke-width="0.8" stroke-linecap="round" stroke-linejoin="round"/>
<path d="M82.541 64.75H93.102" stroke="url(#paint2_linear_2325_33940)" stroke-width="0.8" stroke-linecap="round" stroke-linejoin="round"/>
<path d="M82.541 69.0547H90.906" stroke="url(#paint3_linear_2325_33940)" stroke-width="0.8" stroke-linecap="round" stroke-linejoin="round"/>
<path d="M105.169 86.7341C112.442 86.7341 118.339 81.0853 118.339 74.1171C118.339 67.1489 112.442 61.5 105.169 61.5C97.896 61.5 92 67.1489 92 74.1171C92 81.0853 97.896 86.7341 105.169 86.7341Z" fill="#A56EFF"/>
<path d="M99.3001 79.7575C99.1881 79.7575 99.0751 79.7239 98.9771 79.6634C98.8791 79.603 98.8091 79.5156 98.7671 79.4148C98.7251 79.314 98.7111 79.1998 98.7321 79.0923C98.7531 78.9848 98.8091 78.884 98.8931 78.8101C98.9771 78.7362 99.0751 78.6824 99.1881 78.6556C99.3001 78.6354 99.4121 78.6421 99.5241 78.6892C99.6371 78.7362 99.7211 78.8034 99.7841 78.8907C99.8471 78.9781 99.8821 79.0856 99.8821 79.1998C99.8821 79.3476 99.8191 79.4887 99.7141 79.5895C99.6081 79.6903 99.4611 79.7508 99.3071 79.7508L99.3001 79.7575ZM99.3001 77.5469C98.9561 77.5469 98.6271 77.641 98.3391 77.8291C98.0521 78.0173 97.8341 78.2726 97.7011 78.5749C97.5681 78.8773 97.5331 79.2133 97.6031 79.5358C97.6731 79.8583 97.8341 80.1539 98.0801 80.3824C98.3251 80.6175 98.6271 80.7721 98.9631 80.8393C99.3001 80.9065 99.6441 80.8729 99.9661 80.7452C100.282 80.6175 100.555 80.4092 100.745 80.1338C100.934 79.8583 101.039 79.5425 101.039 79.2132C101.039 78.7765 100.857 78.3532 100.534 78.0441C100.212 77.7351 99.7701 77.5604 99.3141 77.5604L99.3001 77.5469Z" fill="black"/>
<path d="M110.837 68.7093C110.949 68.7093 111.061 68.7429 111.16 68.8034C111.258 68.8639 111.328 68.9512 111.37 69.052C111.412 69.1528 111.426 69.267 111.405 69.3745C111.384 69.482 111.328 69.5828 111.244 69.6567C111.16 69.7374 111.061 69.7844 110.949 69.8113C110.837 69.8381 110.725 69.8247 110.613 69.7777C110.507 69.7374 110.416 69.6635 110.353 69.5761C110.29 69.4888 110.255 69.3813 110.255 69.267C110.255 69.1192 110.318 68.9781 110.423 68.8773C110.528 68.7765 110.676 68.7161 110.83 68.7161L110.837 68.7093ZM103.564 74.7901H105.297L110.024 70.7116C110.269 70.846 110.549 70.9199 110.837 70.9199C111.181 70.9199 111.51 70.8259 111.798 70.6377C112.085 70.4563 112.303 70.1943 112.436 69.8919C112.569 69.5895 112.604 69.2536 112.534 68.9311C112.464 68.6086 112.303 68.3129 112.057 68.0845C111.812 67.8493 111.51 67.6948 111.174 67.6276C110.837 67.5604 110.493 67.594 110.171 67.7216C109.855 67.8493 109.582 68.0576 109.392 68.3331C109.203 68.6086 109.098 68.9244 109.098 69.2536C109.098 69.4686 109.14 69.6903 109.231 69.8919L103.557 74.7834L103.564 74.7901Z" fill="black"/>
<path d="M110.185 72.0568L109.147 72.9437C110.963 73.3066 111.987 73.8643 111.987 74.2338C111.987 74.8184 109.357 75.8934 105.065 75.8934C100.773 75.8934 98.143 74.8184 98.143 74.2338C98.143 73.6492 100.5 72.6951 104.392 72.5742L105.675 71.4723H105.072C102.491 71.4723 99.882 71.8687 98.368 72.6347C98.613 71.6873 99.076 70.8003 99.721 70.0411C100.366 69.2818 101.18 68.6704 102.099 68.2471C103.017 67.8238 104.027 67.6021 105.044 67.5953C106.068 67.5953 107.071 67.7969 107.997 68.2135L108.481 67.2124C107.415 66.7353 106.25 66.4934 105.072 66.5001C102.933 66.5001 100.878 67.3132 99.363 68.7645C97.849 70.2158 97 72.1845 97 74.2338C97 76.048 101.04 76.9953 105.072 76.9953C107.653 76.9953 110.262 76.5989 111.777 75.8329C111.531 76.7803 111.068 77.6672 110.423 78.4265C109.778 79.1858 108.964 79.7972 108.046 80.2205C107.127 80.6438 106.117 80.8655 105.1 80.8722C104.076 80.8722 103.073 80.6707 102.148 80.2541L101.664 81.2552C102.73 81.7323 103.894 81.9742 105.072 81.9675C107.211 81.9675 109.266 81.1545 110.781 79.7031C112.296 78.2518 113.144 76.2831 113.144 74.2338C113.144 73.2461 111.931 72.5137 110.185 72.0568Z" fill="black"/>
<path d="M204.803 51.1158L202.328 48.7441V48.6995L204.803 46.3203" stroke="black" stroke-width="1.1221" stroke-linecap="round" stroke-linejoin="round"/>
<path d="M241.75 86.8033L244.234 84.4316V84.387L241.75 82.0078" stroke="black" stroke-width="1.1221" stroke-linecap="round" stroke-linejoin="round"/>
<path d="M210.088 48.5547H221.729" stroke="black" stroke-width="1.1221" stroke-linecap="round" stroke-linejoin="round"/>
<path d="M213.192 54.5H228.713" stroke="black" stroke-width="1.1221" stroke-linecap="round" stroke-linejoin="round"/>
<path d="M223.281 60.4609H238.801" stroke="black" stroke-width="1.1221" stroke-linecap="round" stroke-linejoin="round"/>
<path d="M223.281 66.3984H238.801" stroke="black" stroke-width="1.1221" stroke-linecap="round" stroke-linejoin="round"/>
<path d="M213.192 72.3516H228.713" stroke="black" stroke-width="1.1221" stroke-linecap="round" stroke-linejoin="round"/>
<path d="M207.76 78.2969H223.281" stroke="black" stroke-width="1.1221" stroke-linecap="round" stroke-linejoin="round"/>
<path d="M213.192 84.2422H238.025" stroke="black" stroke-width="1.1221" stroke-linecap="round" stroke-linejoin="round"/>
<path d="M71.4702 190.897L73.9542 188.525V188.481L71.4702 186.102" stroke="#A8A8A8" stroke-width="1.1221" stroke-linecap="round" stroke-linejoin="round"/>
<path d="M56.8799 152.633H63.8649" stroke="#8D8D8D" stroke-width="1.1221" stroke-linecap="round" stroke-linejoin="round"/>
<path d="M56.8799 158.578H73.4559" stroke="#A8A8A8" stroke-width="1.1221" stroke-linecap="round" stroke-linejoin="round"/>
<path d="M56.8799 164.531H70.8489" stroke="#A8A8A8" stroke-width="1.1221" stroke-linecap="round" stroke-linejoin="round"/>
<path d="M56.8799 170.477H70.8489" stroke="#A8A8A8" stroke-width="1.1221" stroke-linecap="round" stroke-linejoin="round"/>
<path d="M56.8799 176.438H65.1839" stroke="url(#paint4_linear_2325_33940)" stroke-width="1.1221" stroke-linecap="round" stroke-linejoin="round"/>
<path d="M56.8799 182.367H73.9529" stroke="#A8A8A8" stroke-width="1.1221" stroke-linecap="round" stroke-linejoin="round"/>
<path d="M56.8799 188.32H68.5209" stroke="#A8A8A8" stroke-width="1.1221" stroke-linecap="round" stroke-linejoin="round"/>
<path d="M190.365 190.897L192.849 188.525V188.481L190.365 186.102" stroke="#A8A8A8" stroke-width="1.1221" stroke-linecap="round" stroke-linejoin="round"/>
<path d="M175 152.633H185.864" stroke="#8D8D8D" stroke-width="1.1221" stroke-linecap="round" stroke-linejoin="round"/>
<path d="M176.552 158.578H192.352" stroke="#A8A8A8" stroke-width="1.1221" stroke-linecap="round" stroke-linejoin="round"/>
<path d="M176.552 164.531H189.744" stroke="#A8A8A8" stroke-width="1.1221" stroke-linecap="round" stroke-linejoin="round"/>
<path d="M178.104 170.477H189.745" stroke="#A8A8A8" stroke-width="1.1221" stroke-linecap="round" stroke-linejoin="round"/>
<path d="M179.656 176.438H184.08" stroke="url(#paint5_linear_2325_33940)" stroke-width="1.1221" stroke-linecap="round" stroke-linejoin="round"/>
<path d="M176.552 182.367H192.848" stroke="#A8A8A8" stroke-width="1.1221" stroke-linecap="round" stroke-linejoin="round"/>
<path d="M176.552 188.32H187.416" stroke="#A8A8A8" stroke-width="1.1221" stroke-linecap="round" stroke-linejoin="round"/>
<path d="M109.979 169.727V180.879" stroke="#C6C6C6" stroke-width="1.1221" stroke-miterlimit="10"/>
<path d="M123.946 182.352H140.242" stroke="#C6C6C6" stroke-width="1.1221" stroke-miterlimit="10"/>
<path d="M137.915 169.71V157.07" stroke="#C6C6C6" stroke-width="1.1221" stroke-miterlimit="10"/>
<path d="M137.916 169.727H109.979" stroke="#C6C6C6" stroke-width="1.1221" stroke-miterlimit="10"/>
<path d="M123.948 192.758V157.812H109.979" stroke="#C6C6C6" stroke-width="1.1221" stroke-miterlimit="10"/>
<path d="M127.051 165.258H120.843C119.985 165.258 119.291 165.924 119.291 166.745V172.693C119.291 173.514 119.985 174.18 120.843 174.18H127.051C127.908 174.18 128.603 173.514 128.603 172.693V166.745C128.603 165.924 127.908 165.258 127.051 165.258Z" fill="#A56FFF"/>
<path d="M139.467 166.734H136.363C135.506 166.734 134.811 167.4 134.811 168.221V171.195C134.811 172.016 135.506 172.682 136.363 172.682H139.467C140.324 172.682 141.019 172.016 141.019 171.195V168.221C141.019 167.4 140.324 166.734 139.467 166.734Z" fill="#A56FFF"/>
<path d="M111.53 154.852H108.426C107.568 154.852 106.874 155.517 106.874 156.339V159.313C106.874 160.134 107.568 160.799 108.426 160.799H111.53C112.387 160.799 113.082 160.134 113.082 159.313V156.339C113.082 155.517 112.387 154.852 111.53 154.852Z" fill="black"/>
<path d="M125.499 153.359H122.395C121.538 153.359 120.843 154.025 120.843 154.846V159.307C120.843 160.129 121.538 160.794 122.395 160.794H125.499C126.357 160.794 127.052 160.129 127.052 159.307V154.846C127.052 154.025 126.357 153.359 125.499 153.359Z" fill="#A56FFF"/>
<path d="M139.467 153.359H136.363C135.506 153.359 134.811 154.025 134.811 154.846V159.307C134.811 160.129 135.506 160.794 136.363 160.794H139.467C140.324 160.794 141.019 160.129 141.019 159.307V154.846C141.019 154.025 140.324 153.359 139.467 153.359Z" fill="black"/>
<path d="M111.529 165.258H108.425C107.568 165.258 106.873 165.924 106.873 166.745V172.693C106.873 173.514 107.568 174.18 108.425 174.18H111.529C112.387 174.18 113.082 173.514 113.082 172.693V166.745C113.082 165.924 112.387 165.258 111.529 165.258Z" fill="black"/>
<path d="M127.051 178.648H120.843C119.985 178.648 119.291 179.313 119.291 180.135V184.595C119.291 185.417 119.985 186.082 120.843 186.082H127.051C127.908 186.082 128.603 185.417 128.603 184.595V180.135C128.603 179.313 127.908 178.648 127.051 178.648Z" fill="#A56FFF"/>
<path d="M127.051 190.523H120.843C119.985 190.523 119.291 191.189 119.291 192.01V193.497C119.291 194.319 119.985 194.984 120.843 194.984H127.051C127.908 194.984 128.603 194.319 128.603 193.497V192.01C128.603 191.189 127.908 190.523 127.051 190.523Z" fill="#A56FFF"/>
<path d="M112.306 179.391H107.65C106.793 179.391 106.098 180.056 106.098 180.878C106.098 181.699 106.793 182.365 107.65 182.365H112.306C113.164 182.365 113.858 181.699 113.858 180.878C113.858 180.056 113.164 179.391 112.306 179.391Z" fill="#A56FFF"/>
<path d="M140.243 184.578C141.528 184.578 142.571 183.579 142.571 182.348C142.571 181.116 141.528 180.117 140.243 180.117C138.957 180.117 137.915 181.116 137.915 182.348C137.915 183.579 138.957 184.578 140.243 184.578Z" fill="black"/>
<path d="M277.153 58.9714V48.5625" stroke="#C6C6C6" stroke-width="1.1221" stroke-miterlimit="10"/>
<path d="M293.45 58.9766H277.153" stroke="#C6C6C6" stroke-width="1.1221" stroke-miterlimit="10"/>
<path d="M279.481 71.6172V84.2565" stroke="#C6C6C6" stroke-width="1.1221" stroke-miterlimit="10"/>
<path d="M279.481 71.6172H295.778" stroke="#C6C6C6" stroke-width="1.1221" stroke-miterlimit="10"/>
<path d="M293.451 48.5625V83.5066H295.779" stroke="#C6C6C6" stroke-width="1.1221" stroke-miterlimit="10"/>
<path d="M290.338 76.0625H294.995C295.852 76.0625 296.547 75.3968 296.547 74.5755V68.6276C296.547 67.8063 295.852 67.1406 294.995 67.1406H290.338C289.481 67.1406 288.786 67.8063 288.786 68.6276V74.5755C288.786 75.3968 289.481 76.0625 290.338 76.0625Z" fill="#BEBEBE"/>
<path d="M277.923 87.2135H281.027C281.884 87.2135 282.579 86.5478 282.579 85.7266V82.7526C282.579 81.9314 281.884 81.2656 281.027 81.2656H277.923C277.065 81.2656 276.371 81.9314 276.371 82.7526V85.7266C276.371 86.5478 277.065 87.2135 277.923 87.2135Z" fill="#BEBEBE"/>
<path d="M291.89 87.9583H294.995C295.852 87.9583 296.547 87.2926 296.547 86.4713V82.0104C296.547 81.1892 295.852 80.5234 294.995 80.5234H291.89C291.033 80.5234 290.338 81.1892 290.338 82.0104V86.4713C290.338 87.2926 291.033 87.9583 291.89 87.9583Z" fill="#BEBEBE"/>
<path d="M277.923 75.3177H281.027C281.884 75.3177 282.579 74.652 282.579 73.8307V69.3698C282.579 68.5485 281.884 67.8828 281.027 67.8828H277.923C277.065 67.8828 276.371 68.5485 276.371 69.3698V73.8307C276.371 74.652 277.065 75.3177 277.923 75.3177Z" fill="#BEBEBE"/>
<path d="M290.338 62.6849H294.995C295.852 62.6849 296.547 62.0192 296.547 61.1979V56.737C296.547 55.9157 295.852 55.25 294.995 55.25H290.338C289.481 55.25 288.786 55.9157 288.786 56.737V61.1979C288.786 62.0192 289.481 62.6849 290.338 62.6849Z" fill="#BEBEBE"/>
<path d="M290.338 50.7891H294.995C295.852 50.7891 296.547 50.1233 296.547 49.3021V47.8151C296.547 46.9939 295.852 46.3281 294.995 46.3281H290.338C289.481 46.3281 288.786 46.9939 288.786 47.8151V49.3021C288.786 50.1233 289.481 50.7891 290.338 50.7891Z" fill="#BEBEBE"/>
<path d="M274.042 50.7891H280.25C281.108 50.7891 281.802 50.1233 281.802 49.3021V47.8151C281.802 46.9939 281.108 46.3281 280.25 46.3281H274.042C273.185 46.3281 272.49 46.9939 272.49 47.8151V49.3021C272.49 50.1233 273.185 50.7891 274.042 50.7891Z" fill="#BEBEBE"/>
<path d="M277.153 61.1953C278.439 61.1953 279.481 60.1967 279.481 58.9649C279.481 57.733 278.439 56.7344 277.153 56.7344C275.867 56.7344 274.825 57.733 274.825 58.9649C274.825 60.1967 275.867 61.1953 277.153 61.1953Z" fill="#BEBEBE"/>
<path d="M383.049 168.605C382.483 168.605 381.939 168.665 381.404 168.776C381.07 164.323 377.206 160.812 372.472 160.812C368.855 160.812 365.751 162.865 364.331 165.817C363.377 165.349 362.298 165.074 361.149 165.074C357.308 165.074 354.188 168.055 354.188 171.743C354.188 172.055 354.219 172.367 354.266 172.665C354.095 172.65 353.925 172.642 353.746 172.642C350.572 172.642 348.003 175.103 348.003 178.144C348.003 181.185 350.572 183.646 353.746 183.646H383.041C387.379 183.646 390.887 180.278 390.887 176.129C390.887 171.981 387.372 168.613 383.041 168.613L383.049 168.605Z" fill="#BEBEBE"/>
<path d="M353 79.1172V83.9053" stroke="#A56EFF" stroke-width="1.1221" stroke-miterlimit="10"/>
<path d="M353 64.7422V69.5303" stroke="#A56EFF" stroke-width="1.1221" stroke-miterlimit="10"/>
<path d="M353 55.1562V62.3458" stroke="#A56EFF" stroke-width="1.1221" stroke-miterlimit="10"/>
<path d="M356.105 55.75V86.3075" stroke="#A56EFF" stroke-width="1.1221" stroke-miterlimit="10"/>
<path d="M359.208 82.1172V88.7045" stroke="#A56EFF" stroke-width="1.1221" stroke-miterlimit="10"/>
<path d="M359.208 62.3359V79.7262" stroke="#A56EFF" stroke-width="1.1221" stroke-miterlimit="10"/>
<path d="M359.208 50.3594V59.943" stroke="#A56EFF" stroke-width="1.1221" stroke-miterlimit="10"/>
<path d="M362.313 56.3594V65.943" stroke="#A56EFF" stroke-width="1.1221" stroke-miterlimit="10"/>
<path d="M365.416 45.5625V67.7334" stroke="#A56EFF" stroke-width="1.1221" stroke-miterlimit="10"/>
<path d="M368.521 53.3516V70.727" stroke="#A56EFF" stroke-width="1.1221" stroke-miterlimit="10"/>
<path d="M371.623 51.5547V73.1234" stroke="#A56EFF" stroke-width="1.1221" stroke-miterlimit="10"/>
<path d="M374.73 47.3672V75.5232" stroke="#A56EFF" stroke-width="1.1221" stroke-miterlimit="10"/>
<path d="M377.834 69.9531V77.9159" stroke="#A56EFF" stroke-width="1.1221" stroke-miterlimit="10"/>
<path d="M377.834 55.75V67.1329" stroke="#A56EFF" stroke-width="1.1221" stroke-miterlimit="10"/>
<path d="M380.939 52.1484V80.3045" stroke="#A56EFF" stroke-width="1.1221" stroke-miterlimit="10"/>
<path d="M384.041 55.1562V82.1228" stroke="#A56EFF" stroke-width="1.1221" stroke-miterlimit="10"/>
<path d="M387.146 67.7422V83.9131" stroke="#A56EFF" stroke-width="1.1221" stroke-miterlimit="10"/>
<path d="M390.25 55.75V88.7016" stroke="#A56EFF" stroke-width="1.1221" stroke-miterlimit="10"/>
<path d="M356.105 45.5625V53.3543" stroke="#A56EFF" stroke-width="1.1221" stroke-miterlimit="10"/>
<path d="M371.623 49.7612V47.3672" stroke="#A56EFF" stroke-width="1.1221" stroke-miterlimit="10"/>
<path d="M377.834 53.9516V49.4609" stroke="#A56EFF" stroke-width="1.1221" stroke-miterlimit="10"/>
<path d="M387.146 65.3338V61.4453" stroke="#A56EFF" stroke-width="1.1221" stroke-miterlimit="10"/>
<path d="M393.436 55.75V86.3075" stroke="#A56EFF" stroke-width="1.1221" stroke-miterlimit="10"/>
<path d="M396.539 82.1172V88.7045" stroke="#A56EFF" stroke-width="1.1221" stroke-miterlimit="10"/>
<path d="M396.539 62.3359V79.7262" stroke="#A56EFF" stroke-width="1.1221" stroke-miterlimit="10"/>
<path d="M396.539 50.3594V59.943" stroke="#A56EFF" stroke-width="1.1221" stroke-miterlimit="10"/>
<path d="M399.644 56.3594V65.943" stroke="#A56EFF" stroke-width="1.1221" stroke-miterlimit="10"/>
<path d="M402.747 45.5625V67.7334" stroke="#A56EFF" stroke-width="1.1221" stroke-miterlimit="10"/>
<path d="M405.852 53.3516V70.727" stroke="#A56EFF" stroke-width="1.1221" stroke-miterlimit="10"/>
<path d="M408.954 51.5547V73.1234" stroke="#A56EFF" stroke-width="1.1221" stroke-miterlimit="10"/>
<path d="M412.061 47.3672V75.5232" stroke="#A56EFF" stroke-width="1.1221" stroke-miterlimit="10"/>
<path d="M415.165 69.9531V77.9159" stroke="#A56EFF" stroke-width="1.1221" stroke-miterlimit="10"/>
<path d="M415.165 55.75V67.1329" stroke="#A56EFF" stroke-width="1.1221" stroke-miterlimit="10"/>
<path d="M418.27 52.1484V80.3045" stroke="#A56EFF" stroke-width="1.1221" stroke-miterlimit="10"/>
<path d="M393.435 45.5625V53.3543" stroke="#A56EFF" stroke-width="1.1221" stroke-miterlimit="10"/>
<path d="M408.954 49.7612V47.3672" stroke="#A56EFF" stroke-width="1.1221" stroke-miterlimit="10"/>
<path d="M415.165 53.9516V49.4609" stroke="#A56EFF" stroke-width="1.1221" stroke-miterlimit="10"/>
<path d="M230.723 118.402L229.651 114.976C229.074 112.51 229.874 110.577 231.203 108.151L232.782 105.458C232.942 105.178 232.928 104.838 232.74 104.572C232.622 104.405 232.413 104.318 232.219 104.312C232.01 104.312 231.815 104.392 231.676 104.558L229.631 107.211L228.01 104.385L226.034 100.932C225.846 100.592 225.415 100.473 225.06 100.632C224.796 100.746 224.65 100.992 224.65 101.266C224.65 101.352 224.663 101.452 224.698 101.532L225.846 104.258L224.163 105.978C223.592 106.558 223.251 107.291 223.189 108.058L223.001 110.097C222.938 110.717 223.049 111.337 223.342 111.91L224.023 113.29C224.309 113.876 224.51 114.503 224.608 115.136C224.608 115.136 225.477 118.555 226.403 122.514L230.73 118.395L230.723 118.402Z" fill="#FFBEAB"/>
<path d="M269.145 285.283H272.387L277.208 283.543L278.948 279.971L279.942 282.59L285.25 280.737L281.153 269.727L273.507 272.393C274.446 275.679 272.401 278.938 269.333 280.278C266.119 281.677 266.829 285.283 269.145 285.283Z" fill="#121619"/>
<path d="M246.411 285.284H255.809L258.717 282.498V285.284H264.366L264.443 273.594H256.31C256.025 276.986 251.134 278.679 246.765 279.832C242.536 280.932 244.087 285.284 246.404 285.284H246.411Z" fill="#121619"/>
<path d="M276.304 131.32L283.017 150.856C283.97 153.622 283.344 156.668 281.376 158.887L272.721 168.645L276.297 131.327L276.304 131.32Z" fill="url(#paint6_linear_2325_33940)"/>
<path d="M262.989 119.725C268.237 119.725 272.492 115.649 272.492 110.62C272.492 105.592 268.237 101.516 262.989 101.516C257.74 101.516 253.486 105.592 253.486 110.62C253.486 115.649 257.74 119.725 262.989 119.725Z" fill="#FFBEAB"/>
<path d="M254.265 107.023C253.34 109.129 252.894 109.849 252.505 110.162C252.115 110.475 252.011 111.182 252.331 111.488C252.894 112.028 252.63 113.228 252.63 113.228L252.066 115.814C251.858 116.774 252.22 117.767 253.006 118.393L255.134 120.093C255.99 120.779 256.484 121.786 256.484 122.859V124.678H267.462L267.142 121.972C266.996 120.759 267.406 119.546 268.255 118.64L269.98 116.807" fill="#FFBEAB"/>
<path d="M258.724 124.669L249.033 139.106L245.909 147.538C244.699 150.803 244.281 154.283 244.692 157.722L246.285 171.299H274.112L277.208 136.66C277.785 130.195 272.463 124.649 265.694 124.656H258.717L258.724 124.669Z" fill="url(#paint7_linear_2325_33940)"/>
<path d="M264.387 124.676H256.477C255.148 124.676 253.833 124.929 252.616 125.415L236.051 132.054L229.741 115.258L218.798 118.49L225.24 138.652C227.181 143.985 233.109 146.764 238.778 145.524L260.992 140.679L264.387 124.669V124.676Z" fill="#A56EFF"/>
<path d="M272.729 109.319L275.226 120.343C275.727 122.556 273.967 124.649 271.602 124.649H263.754C261.298 124.649 259.545 122.37 260.269 120.124L262.14 114.325C262.21 113.138 259.573 111.905 259.573 111.905C259.573 111.905 256.763 109.799 257.11 107.013H254.265C257.646 100.795 262.634 101.141 265.758 101.748C268.589 102.294 271.664 104.287 272.729 109.319Z" fill="#121619"/>
<path d="M262.284 113.918C262.517 112.743 261.936 111.65 260.984 111.476C260.033 111.303 259.073 112.115 258.839 113.29C258.606 114.465 259.188 115.559 260.139 115.732C261.09 115.906 262.05 115.093 262.284 113.918Z" fill="#FFBEAB"/>
<path d="M274.12 171.305L288.033 273.948H270.606C268.318 273.948 266.029 274.101 263.761 274.414L260.832 274.814C258.564 275.127 256.275 275.281 253.986 275.281H233.777L246.299 171.305" fill="#121619"/>
<path d="M221.491 262.602L220.26 282.917C220.183 284.23 219.042 285.263 217.665 285.263H183.604C182.227 285.263 181.093 284.237 181.009 282.917L179.778 262.602H221.477H221.491Z" fill="url(#paint8_linear_2325_33940)"/>
<path d="M186.728 265.94C186.728 265.572 186.416 265.273 186.032 265.273C185.648 265.273 185.336 265.572 185.336 265.94V280.603C185.336 280.971 185.648 281.27 186.032 281.27C186.416 281.27 186.728 280.971 186.728 280.603V265.94Z" fill="white"/>
<path d="M190.901 265.94C190.901 265.572 190.59 265.273 190.206 265.273C189.821 265.273 189.51 265.572 189.51 265.94V280.603C189.51 280.971 189.821 281.27 190.206 281.27C190.59 281.27 190.901 280.971 190.901 280.603V265.94Z" fill="white"/>
<path d="M195.075 265.94C195.075 265.572 194.764 265.273 194.38 265.273C193.996 265.273 193.684 265.572 193.684 265.94V280.603C193.684 280.971 193.996 281.27 194.38 281.27C194.764 281.27 195.075 280.971 195.075 280.603V265.94Z" fill="white"/>
<path d="M199.25 265.94C199.25 265.572 198.939 265.273 198.555 265.273C198.171 265.273 197.859 265.572 197.859 265.94V280.603C197.859 280.971 198.171 281.27 198.555 281.27C198.939 281.27 199.25 280.971 199.25 280.603V265.94Z" fill="white"/>
<path d="M203.424 265.94C203.424 265.572 203.113 265.273 202.728 265.273C202.344 265.273 202.033 265.572 202.033 265.94V280.603C202.033 280.971 202.344 281.27 202.728 281.27C203.113 281.27 203.424 280.971 203.424 280.603V265.94Z" fill="white"/>
<path d="M207.599 265.94C207.599 265.572 207.287 265.273 206.903 265.273C206.519 265.273 206.208 265.572 206.208 265.94V280.603C206.208 280.971 206.519 281.27 206.903 281.27C207.287 281.27 207.599 280.971 207.599 280.603V265.94Z" fill="white"/>
<path d="M211.772 265.94C211.772 265.572 211.46 265.273 211.076 265.273C210.692 265.273 210.38 265.572 210.38 265.94V280.603C210.38 280.971 210.692 281.27 211.076 281.27C211.46 281.27 211.772 280.971 211.772 280.603V265.94Z" fill="white"/>
<path d="M215.947 265.94C215.947 265.572 215.635 265.273 215.251 265.273C214.867 265.273 214.555 265.572 214.555 265.94V280.603C214.555 280.971 214.867 281.27 215.251 281.27C215.635 281.27 215.947 280.971 215.947 280.603V265.94Z" fill="white"/>
<path d="M193.343 256.035L199.59 233.68" stroke="#A8A8A8" stroke-width="2.80525" stroke-miterlimit="10"/>
<path d="M208.634 256.035L202.387 233.68" stroke="#A8A8A8" stroke-width="2.80525" stroke-miterlimit="10"/>
<path d="M222.903 254.609H178.379C177.611 254.609 176.988 255.206 176.988 255.942V261.274C176.988 262.011 177.611 262.607 178.379 262.607H222.903C223.671 262.607 224.294 262.011 224.294 261.274V255.942C224.294 255.206 223.671 254.609 222.903 254.609Z" fill="#A56EFF"/>
<path d="M168 37.5H162V96.5H168V37.5Z" fill="#E0E0E0"/>
<path d="M306 37.5H300V96.5H306V37.5Z" fill="#E0E0E0"/>
</g>
<rect x="403" y="135" width="37" height="69" rx="3" fill="url(#paint9_linear_2325_33940)"/>
<rect x="403" y="30" width="37" height="69" rx="3" fill="url(#paint10_linear_2325_33940)"/>
</g>
<defs>
<linearGradient id="paint0_linear_2325_33940" x1="78" y1="49.6487" x2="104.905" y2="49.6487" gradientUnits="userSpaceOnUse">
<stop stop-color="#C1C7CD"/>
<stop offset="0.44" stop-color="#BEC4CA"/>
<stop offset="0.71" stop-color="#B5BCC2"/>
<stop offset="0.94" stop-color="#A7AEB4"/>
<stop offset="1" stop-color="#A2A9B0"/>
</linearGradient>
<linearGradient id="paint1_linear_2325_33940" x1="-nan" y1="-nan" x2="-nan" y2="-nan" gradientUnits="userSpaceOnUse">
<stop offset="0.21" stop-color="#F4F4F4"/>
<stop offset="1" stop-color="#F4F4F4" stop-opacity="0"/>
</linearGradient>
<linearGradient id="paint2_linear_2325_33940" x1="-nan" y1="-nan" x2="-nan" y2="-nan" gradientUnits="userSpaceOnUse">
<stop offset="0.29" stop-color="#F4F4F4"/>
<stop offset="1" stop-color="#F4F4F4" stop-opacity="0"/>
</linearGradient>
<linearGradient id="paint3_linear_2325_33940" x1="-nan" y1="-nan" x2="-nan" y2="-nan" gradientUnits="userSpaceOnUse">
<stop offset="0.29" stop-color="#F4F4F4"/>
<stop offset="1" stop-color="#F4F4F4" stop-opacity="0"/>
</linearGradient>
<linearGradient id="paint4_linear_2325_33940" x1="-nan" y1="-nan" x2="-nan" y2="-nan" gradientUnits="userSpaceOnUse">
<stop stop-color="#A8A8A8"/>
<stop offset="1" stop-color="#8D8D8D" stop-opacity="0"/>
</linearGradient>
<linearGradient id="paint5_linear_2325_33940" x1="-nan" y1="-nan" x2="-nan" y2="-nan" gradientUnits="userSpaceOnUse">
<stop stop-color="#A8A8A8"/>
<stop offset="1" stop-color="#8D8D8D" stop-opacity="0"/>
</linearGradient>
<linearGradient id="paint6_linear_2325_33940" x1="273" y1="159.496" x2="283" y2="150.496" gradientUnits="userSpaceOnUse">
<stop stop-color="#7C6CFF"/>
<stop offset="1" stop-color="#A570FF"/>
</linearGradient>
<linearGradient id="paint7_linear_2325_33940" x1="245" y1="156.996" x2="264.5" y2="149.996" gradientUnits="userSpaceOnUse">
<stop stop-color="#7B6BFF"/>
<stop offset="1" stop-color="#A56FFF"/>
</linearGradient>
<linearGradient id="paint8_linear_2325_33940" x1="200.634" y1="262.602" x2="200.634" y2="285.263" gradientUnits="userSpaceOnUse">
<stop stop-color="#7F6DFF"/>
<stop offset="0.606853" stop-color="#A56EFF"/>
</linearGradient>
<linearGradient id="paint9_linear_2325_33940" x1="403" y1="169" x2="430" y2="169" gradientUnits="userSpaceOnUse">
<stop stop-color="#F4F4F4" stop-opacity="0"/>
<stop offset="1" stop-color="#F4F4F4"/>
</linearGradient>
<linearGradient id="paint10_linear_2325_33940" x1="403" y1="64" x2="428" y2="64" gradientUnits="userSpaceOnUse">
<stop stop-color="#F4F4F4" stop-opacity="0"/>
<stop offset="1" stop-color="#F4F4F4"/>
</linearGradient>
<clipPath id="clip0_2325_33940">
<rect width="499" height="305" fill="white"/>
</clipPath>
</defs>
</svg>
