<svg width="608" height="384" viewBox="0 0 608 384" fill="none" xmlns="http://www.w3.org/2000/svg">
<rect width="608" height="384" fill="white" fill-opacity="0.01" style="mix-blend-mode:multiply"/>
<path d="M450.594 23.375H117.965C115.413 23.375 113.345 25.4434 113.345 27.9948V203.549C113.345 206.101 115.413 208.169 117.965 208.169H450.594C453.145 208.169 455.213 206.101 455.213 203.549V27.9948C455.213 25.4434 453.145 23.375 450.594 23.375Z" fill="#A2A9B0"/>
<path d="M445.973 32.625H122.584V198.939H445.973V32.625Z" fill="#E0E0E0"/>
<path d="M117.965 23.375H122.584V32.6147H113.345V27.9948C113.345 25.4539 115.424 23.375 117.965 23.375Z" fill="#343A3F"/>
<path d="M455.214 32.625H445.974V23.3853H450.594C453.135 23.3853 455.214 25.4642 455.214 28.0052V32.625Z" fill="#343A3F"/>
<path d="M113.345 198.922H122.584V208.162H117.965C115.424 208.162 113.345 206.083 113.345 203.542V198.922Z" fill="#343A3F"/>
<path d="M450.594 208.172H445.974V198.932H455.214V203.552C455.214 206.093 453.135 208.172 450.594 208.172Z" fill="#343A3F"/>
<path d="M159.542 97.2891H145.683V111.149H159.542V97.2891Z" fill="#FF7EB6"/>
<path d="M159.543 71.8828H145.684V85.7424H159.543V71.8828Z" fill="#A6C8FF"/>
<path d="M187.262 104.219H173.402V118.078H187.262V104.219Z" fill="#F4F4F4"/>
<path d="M238.08 101.906H224.221V115.766H238.08V101.906Z" fill="#F4F4F4"/>
<path d="M261.179 125.016H247.319V138.875H261.179V125.016Z" fill="#F4F4F4"/>
<path d="M261.179 101.906H247.319V115.766H261.179V101.906Z" fill="#F4F4F4"/>
<path d="M208.051 83.4375H194.191V97.297H208.051V83.4375Z" fill="#BE95FF"/>
<path d="M210.361 106.531H196.502V120.391H210.361V106.531Z" fill="#0F62FE"/>
<path d="M238.08 125.016H224.221V138.875H238.08V125.016Z" fill="#FF7EB6"/>
<path d="M268.109 168.906H254.249V182.766H268.109V168.906Z" fill="#0F62FE"/>
<path d="M268.109 148.109H254.249V161.969H268.109V148.109Z" fill="#0F62FE"/>
<path d="M245.009 161.969H231.149V175.828H245.009V161.969Z" fill="#A56EFF"/>
<path d="M187.262 74.1953H173.402V88.0549H187.262V74.1953Z" fill="#F4F4F4"/>
<path d="M392.846 70.7266H314.309" stroke="#A56EFF" stroke-width="1.10274" stroke-miterlimit="10"/>
<path d="M375.521 61.4844H337.407" stroke="#A56EFF" stroke-width="1.10274" stroke-miterlimit="10"/>
<path d="M370.554 122.515C366.235 117.295 363.647 110.596 363.647 103.297C363.647 95.9973 366.235 89.2986 370.554 84.0781" stroke="#A56EFF" stroke-width="1.10274" stroke-miterlimit="10"/>
<path d="M415.621 122.515C419.941 117.295 422.528 110.596 422.528 103.297C422.528 95.9973 419.941 89.2986 415.621 84.0781" stroke="#A56EFF" stroke-width="1.10274" stroke-miterlimit="10"/>
<path d="M388.549 86.7344V91.6314" stroke="#A56EFF" stroke-width="1.10274" stroke-miterlimit="10"/>
<path d="M379.932 91.4948C380.57 91.4948 381.087 90.4607 381.087 89.1849C381.087 87.9092 380.57 86.875 379.932 86.875C379.294 86.875 378.777 87.9092 378.777 89.1849C378.777 90.4607 379.294 91.4948 379.932 91.4948Z" stroke="#A56EFF" stroke-width="1.10274" stroke-miterlimit="10"/>
<path d="M397.165 91.4948C397.803 91.4948 398.32 90.4607 398.32 89.1849C398.32 87.9092 397.803 86.875 397.165 86.875C396.527 86.875 396.01 87.9092 396.01 89.1849C396.01 90.4607 396.527 91.4948 397.165 91.4948Z" stroke="#A56EFF" stroke-width="1.10274" stroke-miterlimit="10"/>
<path d="M405.78 91.4948C406.418 91.4948 406.935 90.4607 406.935 89.1849C406.935 87.9092 406.418 86.875 405.78 86.875C405.142 86.875 404.625 87.9092 404.625 89.1849C404.625 90.4607 405.142 91.4948 405.78 91.4948Z" stroke="#A56EFF" stroke-width="1.10274" stroke-miterlimit="10"/>
<path d="M388.549 100.885C389.186 100.885 389.703 99.8513 389.703 98.5755C389.703 97.2998 389.186 96.2656 388.549 96.2656C387.911 96.2656 387.394 97.2998 387.394 98.5755C387.394 99.8513 387.911 100.885 388.549 100.885Z" stroke="#A56EFF" stroke-width="1.10274" stroke-miterlimit="10"/>
<path d="M397.165 100.885C397.803 100.885 398.32 99.8513 398.32 98.5755C398.32 97.2998 397.803 96.2656 397.165 96.2656C396.527 96.2656 396.01 97.2998 396.01 98.5755C396.01 99.8513 396.527 100.885 397.165 100.885Z" stroke="#A56EFF" stroke-width="1.10274" stroke-miterlimit="10"/>
<path d="M405.781 100.885C406.419 100.885 406.936 99.8513 406.936 98.5755C406.936 97.2998 406.419 96.2656 405.781 96.2656C405.143 96.2656 404.626 97.2998 404.626 98.5755C404.626 99.8513 405.143 100.885 405.781 100.885Z" stroke="#A56EFF" stroke-width="1.10274" stroke-miterlimit="10"/>
<path d="M379.933 96.1328V101.03" stroke="#A56EFF" stroke-width="1.10274" stroke-miterlimit="10"/>
<path d="M405.779 110.292C406.417 110.292 406.934 109.258 406.934 107.982C406.934 106.706 406.417 105.672 405.779 105.672C405.141 105.672 404.624 106.706 404.624 107.982C404.624 109.258 405.141 110.292 405.779 110.292Z" stroke="#A56EFF" stroke-width="1.10274" stroke-miterlimit="10"/>
<path d="M388.547 110.292C389.184 110.292 389.702 109.258 389.702 107.982C389.702 106.706 389.184 105.672 388.547 105.672C387.909 105.672 387.392 106.706 387.392 107.982C387.392 109.258 387.909 110.292 388.547 110.292Z" stroke="#A56EFF" stroke-width="1.10274" stroke-miterlimit="10"/>
<path d="M379.931 110.292C380.569 110.292 381.086 109.258 381.086 107.982C381.086 106.706 380.569 105.672 379.931 105.672C379.293 105.672 378.776 106.706 378.776 107.982C378.776 109.258 379.293 110.292 379.931 110.292Z" stroke="#A56EFF" stroke-width="1.10274" stroke-miterlimit="10"/>
<path d="M397.163 105.531V110.405" stroke="#A56EFF" stroke-width="1.10274" stroke-miterlimit="10"/>
<path d="M397.165 119.667C397.803 119.667 398.32 118.633 398.32 117.357C398.32 116.081 397.803 115.047 397.165 115.047C396.527 115.047 396.01 116.081 396.01 117.357C396.01 118.633 396.527 119.667 397.165 119.667Z" stroke="#A56EFF" stroke-width="1.10274" stroke-miterlimit="10"/>
<path d="M405.78 119.667C406.418 119.667 406.935 118.633 406.935 117.357C406.935 116.081 406.418 115.047 405.78 115.047C405.142 115.047 404.625 116.081 404.625 117.357C404.625 118.633 405.142 119.667 405.78 119.667Z" stroke="#A56EFF" stroke-width="1.10274" stroke-miterlimit="10"/>
<path d="M379.909 119.667C380.547 119.667 381.064 118.633 381.064 117.357C381.064 116.081 380.547 115.047 379.909 115.047C379.271 115.047 378.754 116.081 378.754 117.357C378.754 118.633 379.271 119.667 379.909 119.667Z" stroke="#A56EFF" stroke-width="1.10274" stroke-miterlimit="10"/>
<path d="M388.548 114.938V119.811" stroke="#A56EFF" stroke-width="1.10274" stroke-miterlimit="10"/>
<path d="M370.554 172.25C366.235 167.029 363.647 160.33 363.647 153.031C363.647 145.732 366.235 139.033 370.554 133.812" stroke="#A56EFF" stroke-width="1.10274" stroke-miterlimit="10"/>
<path d="M415.621 172.25C419.941 167.029 422.528 160.33 422.528 153.031C422.528 145.732 419.941 139.033 415.621 133.812" stroke="#A56EFF" stroke-width="1.10274" stroke-miterlimit="10"/>
<path d="M405.781 136.484V141.381" stroke="#A56EFF" stroke-width="1.10274" stroke-miterlimit="10"/>
<path d="M379.932 141.245C380.57 141.245 381.087 140.211 381.087 138.935C381.087 137.659 380.57 136.625 379.932 136.625C379.294 136.625 378.777 137.659 378.777 138.935C378.777 140.211 379.294 141.245 379.932 141.245Z" stroke="#A56EFF" stroke-width="1.10274" stroke-miterlimit="10"/>
<path d="M397.165 141.245C397.803 141.245 398.32 140.211 398.32 138.935C398.32 137.659 397.803 136.625 397.165 136.625C396.527 136.625 396.01 137.659 396.01 138.935C396.01 140.211 396.527 141.245 397.165 141.245Z" stroke="#A56EFF" stroke-width="1.10274" stroke-miterlimit="10"/>
<path d="M388.549 141.245C389.186 141.245 389.703 140.211 389.703 138.935C389.703 137.659 389.186 136.625 388.549 136.625C387.911 136.625 387.394 137.659 387.394 138.935C387.394 140.211 387.911 141.245 388.549 141.245Z" stroke="#A56EFF" stroke-width="1.10274" stroke-miterlimit="10"/>
<path d="M388.547 150.651C389.184 150.651 389.702 149.617 389.702 148.341C389.702 147.065 389.184 146.031 388.547 146.031C387.909 146.031 387.392 147.065 387.392 148.341C387.392 149.617 387.909 150.651 388.547 150.651Z" stroke="#A56EFF" stroke-width="1.10274" stroke-miterlimit="10"/>
<path d="M379.931 150.651C380.569 150.651 381.086 149.617 381.086 148.341C381.086 147.065 380.569 146.031 379.931 146.031C379.293 146.031 378.776 147.065 378.776 148.341C378.776 149.617 379.293 150.651 379.931 150.651Z" stroke="#A56EFF" stroke-width="1.10274" stroke-miterlimit="10"/>
<path d="M405.779 150.651C406.417 150.651 406.934 149.617 406.934 148.341C406.934 147.065 406.417 146.031 405.779 146.031C405.141 146.031 404.624 147.065 404.624 148.341C404.624 149.617 405.141 150.651 405.779 150.651Z" stroke="#A56EFF" stroke-width="1.10274" stroke-miterlimit="10"/>
<path d="M397.163 145.891V150.788" stroke="#A56EFF" stroke-width="1.10274" stroke-miterlimit="10"/>
<path d="M397.372 160.01C398.01 160.01 398.527 158.976 398.527 157.701C398.527 156.425 398.01 155.391 397.372 155.391C396.734 155.391 396.217 156.425 396.217 157.701C396.217 158.976 396.734 160.01 397.372 160.01Z" stroke="#A56EFF" stroke-width="1.10274" stroke-miterlimit="10"/>
<path d="M388.547 160.01C389.184 160.01 389.702 158.976 389.702 157.701C389.702 156.425 389.184 155.391 388.547 155.391C387.909 155.391 387.392 156.425 387.392 157.701C387.392 158.976 387.909 160.01 388.547 160.01Z" stroke="#A56EFF" stroke-width="1.10274" stroke-miterlimit="10"/>
<path d="M379.931 160.01C380.569 160.01 381.086 158.976 381.086 157.701C381.086 156.425 380.569 155.391 379.931 155.391C379.293 155.391 378.776 156.425 378.776 157.701C378.776 158.976 379.293 160.01 379.931 160.01Z" stroke="#A56EFF" stroke-width="1.10274" stroke-miterlimit="10"/>
<path d="M405.78 155.281V160.155" stroke="#A56EFF" stroke-width="1.10274" stroke-miterlimit="10"/>
<path d="M397.165 169.417C397.803 169.417 398.32 168.383 398.32 167.107C398.32 165.831 397.803 164.797 397.165 164.797C396.527 164.797 396.01 165.831 396.01 167.107C396.01 168.383 396.527 169.417 397.165 169.417Z" stroke="#A56EFF" stroke-width="1.10274" stroke-miterlimit="10"/>
<path d="M405.78 169.417C406.418 169.417 406.935 168.383 406.935 167.107C406.935 165.831 406.418 164.797 405.78 164.797C405.142 164.797 404.625 165.831 404.625 167.107C404.625 168.383 405.142 169.417 405.78 169.417Z" stroke="#A56EFF" stroke-width="1.10274" stroke-miterlimit="10"/>
<path d="M379.909 169.417C380.547 169.417 381.064 168.383 381.064 167.107C381.064 165.831 380.547 164.797 379.909 164.797C379.271 164.797 378.754 165.831 378.754 167.107C378.754 168.383 379.271 169.417 379.909 169.417Z" stroke="#A56EFF" stroke-width="1.10274" stroke-miterlimit="10"/>
<path d="M388.548 164.656V169.553" stroke="#A56EFF" stroke-width="1.10274" stroke-miterlimit="10"/>
<path d="M272.705 107.359C297.883 123.598 286.565 149.123 275.177 153.558" stroke="#A56EFF" stroke-width="1.10274" stroke-miterlimit="10"/>
<path d="M275.663 149.906L275.224 153.695L278.919 154.803" stroke="#A56EFF" stroke-width="1.10274" stroke-miterlimit="10"/>
<path d="M398.712 183.984H366.535" stroke="#A56EFF" stroke-width="1.10274" stroke-miterlimit="10"/>
<path d="M318.927 117.594H301.533" stroke="#A56EFF" stroke-width="1.10274" stroke-miterlimit="10"/>
<path d="M310.842 129.078H299.107" stroke="#A56EFF" stroke-width="1.10274" stroke-miterlimit="10"/>
<path d="M314.307 143.562L301.533 143.516" stroke="#A56EFF" stroke-width="1.10274" stroke-miterlimit="10"/>
<path d="M229.164 92.5537L232.121 94.9791L235.054 92.4844" stroke="#A56EFF" stroke-width="1.10274" stroke-miterlimit="10"/>
<path d="M232.121 94.9808V76.4552C232.121 69.4562 226.462 63.7969 219.463 63.7969H199.99" stroke="#A56EFF" stroke-width="1.10274" stroke-miterlimit="10"/>
<path d="M279.659 73.0367C284.124 73.0367 287.744 69.417 287.744 64.9519C287.744 60.4868 284.124 56.8672 279.659 56.8672C275.194 56.8672 271.574 60.4868 271.574 64.9519C271.574 69.417 275.194 73.0367 279.659 73.0367Z" stroke="#A56EFF" stroke-width="1.10274" stroke-miterlimit="10"/>
<path d="M294.674 98.4428C297.225 98.4428 299.293 96.3744 299.293 93.823C299.293 91.2715 297.225 89.2031 294.674 89.2031C292.122 89.2031 290.054 91.2715 290.054 93.823C290.054 96.3744 292.122 98.4428 294.674 98.4428Z" stroke="#A56EFF" stroke-width="1.10274" stroke-miterlimit="10"/>
<path d="M329.322 98.4428C331.873 98.4428 333.942 96.3744 333.942 93.823C333.942 91.2715 331.873 89.2031 329.322 89.2031C326.771 89.2031 324.702 91.2715 324.702 93.823C324.702 96.3744 326.771 98.4428 329.322 98.4428Z" stroke="#A56EFF" stroke-width="1.10274" stroke-miterlimit="10"/>
<path d="M284.278 71.5781L292.317 89.3414" stroke="#A56EFF" stroke-width="1.10274" stroke-miterlimit="10"/>
<path d="M299.294 93.8281H324.703" stroke="#A56EFF" stroke-width="1.10274" stroke-miterlimit="10"/>
<path d="M331.632 98.4375L338.885 114.699" stroke="#A56EFF" stroke-width="1.10274" stroke-miterlimit="10"/>
<path d="M101.794 323.656H106.367V298.247H101.794V323.656Z" fill="#4D5358"/>
<path d="M124.894 247.438H83.3149C78.2119 247.438 74.0752 251.574 74.0752 256.677V289.016C74.0752 294.119 78.2119 298.256 83.3149 298.256H124.894C129.996 298.256 134.133 294.119 134.133 289.016V256.677C134.133 251.574 129.996 247.438 124.894 247.438Z" stroke="#343A3F" stroke-width="4.41096" stroke-miterlimit="10" stroke-linecap="round"/>
<path d="M120.135 226.648H88.073C81.6178 226.648 76.3848 231.881 76.3848 238.337V261.159C76.3848 267.614 81.6178 272.847 88.073 272.847H120.135C126.59 272.847 131.823 267.614 131.823 261.159V238.337C131.823 231.881 126.59 226.648 120.135 226.648Z" fill="#D2745A"/>
<path d="M83.3148 295.953H124.893C128.721 295.953 131.823 292.851 131.823 289.023C131.823 285.196 128.721 282.094 124.893 282.094H83.3148C79.4876 282.094 76.3851 285.196 76.3851 289.023C76.3851 292.851 79.4876 295.953 83.3148 295.953Z" fill="#D2745A"/>
<path d="M136.443 360.623C138.995 360.623 141.063 358.554 141.063 356.003C141.063 353.451 138.995 351.383 136.443 351.383C133.892 351.383 131.823 353.451 131.823 356.003C131.823 358.554 133.892 360.623 136.443 360.623Z" fill="#4D5358"/>
<path d="M104.104 360.623C106.656 360.623 108.724 358.554 108.724 356.003C108.724 353.451 106.656 351.383 104.104 351.383C101.553 351.383 99.4844 353.451 99.4844 356.003C99.4844 358.554 101.553 360.623 104.104 360.623Z" fill="#4D5358"/>
<path d="M71.7654 360.623C74.3168 360.623 76.3852 358.554 76.3852 356.003C76.3852 353.451 74.3168 351.383 71.7654 351.383C69.2139 351.383 67.1455 353.451 67.1455 356.003C67.1455 358.554 69.2139 360.623 71.7654 360.623Z" fill="#4D5358"/>
<path d="M111.035 300.562H97.1752C95.8994 300.562 94.8652 301.597 94.8652 302.872C94.8652 304.148 95.8994 305.182 97.1752 305.182H111.035C112.31 305.182 113.345 304.148 113.345 302.872C113.345 301.597 112.31 300.562 111.035 300.562Z" fill="#343A3F"/>
<path d="M141.063 348.288V351.383H136.443V349.073L108.724 337.524H99.4844L71.7654 349.073V351.383H67.1455V348.288C67.1455 347.364 67.6999 346.532 68.5545 346.163L95.3035 334.705C97.8444 333.62 99.5076 331.102 99.5076 328.33V323.664H108.747V328.33C108.747 331.102 110.41 333.597 112.951 334.705L139.7 346.163C140.555 346.532 141.109 347.364 141.109 348.288H141.063Z" fill="#343A3F"/>
<path d="M106.414 351.391H101.794L99.4844 337.531H108.724L106.414 351.391Z" fill="#343A3F"/>
<path d="M539.11 265.7L539.064 266.231C538.394 275.171 530.933 282.101 521.948 282.101H482.91V346.779H455.214V277.319C455.214 268.01 462.051 260.133 471.268 258.817L510.421 253.227L539.11 265.723V265.7Z" fill="#21272A"/>
<path d="M527.998 182.291C527.998 184.093 527.583 185.779 526.867 187.303L525.18 191.069C524.649 192.247 524.441 193.54 524.58 194.834L525.065 199.084H512.314V197.282C512.314 196.035 511.459 194.949 510.235 194.672L506.678 193.817C505.407 193.517 504.483 192.362 504.507 191.045L504.576 187.904C504.576 187.904 504.784 186.287 503.791 185.802C502.82 185.317 502.705 184.485 503.097 184C503.559 183.423 504.414 182.66 505.015 179.981C505.015 179.912 505.015 179.842 505.061 179.773C506.216 174.553 510.859 170.672 516.403 170.672C522.801 170.672 527.998 175.869 527.998 182.291Z" fill="#93633F"/>
<path d="M512.315 199.086L492.172 217.404L473.693 205.854L471.383 219.714L487.552 231.263L508.342 233.573L512.315 199.086Z" fill="#8B3FFC"/>
<path d="M528.623 199.844L534.467 205.018C540.658 210.516 543.845 218.67 543.014 226.916L539.087 265.908C518.298 265.908 517.582 254.358 501.412 254.358V240.498" fill="url(#paint0_linear_2145_44901)"/>
<path d="M528.623 199.844L524.673 195.57L512.315 199.081L501.412 226.523L482.933 226.662V240.521H502.382C508.758 240.521 514.463 236.595 516.75 230.658L528.6 199.867L528.623 199.844Z" fill="#A56EFF"/>
<path d="M468.912 235.883H394.994C393.719 235.883 392.685 236.917 392.685 238.193C392.685 239.468 393.719 240.503 394.994 240.503H468.912C470.188 240.503 471.222 239.468 471.222 238.193C471.222 236.917 470.188 235.883 468.912 235.883Z" fill="#21272A"/>
<path d="M468.912 235.883H438.883C437.607 235.883 436.573 236.917 436.573 238.193C436.573 239.468 437.607 240.503 438.883 240.503H468.912C470.188 240.503 471.222 239.468 471.222 238.193C471.222 236.917 470.188 235.883 468.912 235.883Z" fill="#121619"/>
<path d="M431.238 203.547H477.02C478.614 203.547 479.792 205.071 479.377 206.619L472.008 234.084C471.731 235.147 470.761 235.886 469.652 235.886H423.869C422.275 235.886 421.097 234.361 421.513 232.814L428.882 205.349C429.159 204.286 430.129 203.547 431.238 203.547Z" fill="#121619"/>
<path d="M473.555 208.156H434.286L428.096 231.255H467.364L473.555 208.156Z" fill="#343A3F"/>
<path d="M433.662 210.466H472.931L473.555 208.156H434.286L433.662 210.466Z" fill="#21272A"/>
<path d="M430.406 231.263H465.055L469.375 215.094H434.726L430.406 231.263Z" fill="#4D5358"/>
<path d="M435.348 212.766H442.278L441.654 215.076H434.725L435.348 212.766Z" fill="#4D5358"/>
<path d="M439.646 231.266H462.745L466.441 217.406H443.341L439.646 231.266Z" fill="#21272A"/>
<path d="M458.542 220.007H444.729L444.89 219.406H458.704L458.542 220.007Z" fill="#F4F4F4"/>
<path d="M453.298 222.319H448.725L448.886 221.719H453.46L453.298 222.319Z" fill="#F4F4F4"/>
<path d="M457.294 224.616H448.101L448.262 224.016H457.456L457.294 224.616Z" fill="#F4F4F4"/>
<path d="M456.671 226.944H450.966L451.128 226.344H456.833L456.671 226.944Z" fill="#F4F4F4"/>
<path d="M456.047 229.257H450.342L450.504 228.656H456.209L456.047 229.257Z" fill="#F4F4F4"/>
<path d="M435.811 219.716H440.43L441.031 217.406H436.411L435.811 219.716Z" fill="#343A3F"/>
<path d="M517.997 182.152L517.743 182.336C517.605 182.313 517.466 182.29 517.304 182.29C515.919 182.29 514.764 183.307 514.579 184.623C514.533 184.762 514.533 184.9 514.533 185.039L513.586 191.992C513.355 193.678 511.761 194.856 510.074 194.579L505.732 193.863C504.138 193.586 503.029 192.13 503.237 190.537L503.791 185.801L506.124 186.795C507.626 187.418 509.335 187.28 510.721 186.402L512.8 185.039L513.562 180.234L517.997 182.152Z" fill="#343A3F"/>
<path d="M524.557 193.539C511.922 183.213 508.134 174.158 508.134 174.158C507.094 175.244 506.609 176.075 506.609 176.075C503.214 167.436 509.081 157.227 523.148 170.693C537.216 184.183 530.032 192.846 524.557 193.539Z" fill="#343A3F"/>
<path d="M462.536 360.625H482.932V346.766H473.693C473.369 350.785 467.895 352.795 462.928 354.157C458.124 355.474 459.879 360.625 462.513 360.625H462.536Z" fill="#121619"/>
<path d="M482.932 240.499H478.312H475.355C474.362 240.499 473.438 239.898 473.045 238.974L472.075 236.734L468.264 237.773C467.502 237.981 466.739 237.404 466.739 236.618C466.739 236.156 466.993 235.74 467.409 235.556L474.963 231.767C475.609 231.444 476.372 231.398 477.065 231.629L482.909 233.569V240.499H482.932Z" fill="#93633F"/>
<path d="M468.172 201.234H461.404C460.133 201.234 459.094 202.274 459.094 203.544V205.854C459.094 207.125 460.133 208.164 461.404 208.164H467.386C468.38 208.164 469.257 207.517 469.581 206.593L470.343 204.283C470.851 202.782 469.719 201.234 468.149 201.234H468.172Z" fill="#93633F"/>
<path d="M469.903 202L471.428 203.548H469.903V202Z" fill="#93633F"/>
<path d="M154.207 154.583C153.745 155.091 153.606 155.808 153.907 156.316C154.23 156.893 154.346 157.586 154.207 158.372C154.068 159.157 153.699 159.85 153.168 160.427C152.682 160.936 152.567 161.652 152.867 162.183C153.191 162.76 153.329 163.476 153.191 164.239C153.052 165.001 152.682 165.717 152.151 166.295C151.689 166.803 151.551 167.519 151.851 168.027C152.174 168.604 152.29 169.321 152.174 170.083C152.059 170.845 151.666 171.561 151.135 172.139C150.65 172.647 150.534 173.363 150.835 173.894C151.158 174.472 151.297 175.188 151.158 175.95C151.019 176.712 150.65 177.428 150.118 178.006C149.633 178.514 149.518 179.23 149.818 179.761C150.142 180.339 150.28 181.055 150.142 181.817C150.003 182.58 149.633 183.296 149.102 183.873C148.64 184.381 148.501 185.097 148.802 185.606C149.125 186.183 149.241 186.876 149.102 187.661C148.756 189.579 146.954 191.126 145.037 191.126C143.119 191.126 141.849 189.579 142.172 187.661C142.311 186.899 142.681 186.183 143.212 185.606C143.697 185.097 143.812 184.381 143.535 183.873C143.212 183.296 143.073 182.58 143.212 181.817C143.35 181.055 143.72 180.339 144.251 179.761C144.736 179.253 144.852 178.537 144.552 178.006C144.228 177.428 144.09 176.712 144.228 175.95C144.367 175.188 144.736 174.472 145.268 173.894C145.753 173.386 145.868 172.67 145.568 172.139C145.245 171.561 145.106 170.845 145.245 170.083C145.383 169.321 145.753 168.604 146.284 168.027C146.746 167.519 146.885 166.803 146.584 166.295C146.261 165.717 146.122 165.001 146.261 164.239C146.4 163.476 146.769 162.76 147.3 162.183C147.786 161.675 147.901 160.959 147.601 160.427C147.277 159.85 147.139 159.134 147.277 158.372C147.416 157.609 147.786 156.893 148.317 156.316C148.802 155.808 148.917 155.091 148.64 154.583C148.317 154.006 148.178 153.29 148.317 152.527C148.455 151.765 148.825 151.049 149.356 150.472C149.841 149.963 149.957 149.247 149.656 148.716C149.333 148.139 149.195 147.422 149.333 146.66C149.68 144.743 151.481 143.195 153.399 143.195C155.316 143.195 156.586 144.743 156.263 146.66C156.124 147.422 155.755 148.139 155.223 148.716C154.738 149.224 154.623 149.94 154.923 150.472C155.247 151.049 155.385 151.765 155.247 152.527C155.108 153.29 154.738 154.006 154.207 154.583Z" fill="#21272A"/>
<path d="M172.317 132.8L172.086 133.77C171.624 133.146 171.092 132.546 170.492 132.038L169.129 129.266L171.647 131.067C172.201 131.46 172.455 132.153 172.317 132.8Z" fill="#21272A"/>
<path d="M174.396 150.745L172.039 152.339C170.723 153.24 169.914 154.741 169.914 156.335V158.599H157.325L157.718 155.134C157.88 153.586 157.395 152.038 156.355 150.883L154.669 149.012L154.23 148.55C152.821 147.003 151.782 145.062 151.366 142.868C150.165 136.562 154.299 130.487 160.605 129.286C166.057 128.246 171.347 131.203 173.425 136.1C173.495 136.285 173.564 136.446 173.633 136.608C174.627 138.895 175.135 139.727 175.597 140.096C176.059 140.489 176.197 141.39 175.805 141.782C175.112 142.475 175.435 144 175.435 144L176.013 146.749C176.336 148.296 175.689 149.867 174.396 150.745Z" fill="#93633F"/>
<path d="M171.069 135.73C170.145 138.271 168.574 140.466 168.713 142.36C168.435 140.882 167.258 139.842 166.103 140.05C165.017 140.258 164.324 141.505 164.486 142.891H164.462L164.647 144.531C164.948 147.211 163.446 149.752 160.951 150.791L157.279 152.293C156.609 150.93 155.315 150.722 152.589 147.165C149.864 143.63 148.663 135.592 154.83 131.018C159.589 127.461 164.047 127.045 168.043 128.662C170.792 129.771 172.085 132.959 171.069 135.73Z" fill="#21272A"/>
<path d="M147.993 217.406L138.753 346.762H161.852L168.782 217.406H147.993Z" fill="url(#paint1_linear_2145_44901)"/>
<path d="M147.992 217.406H184.951L194.191 346.762H171.091L159.542 233.991L147.992 217.406Z" fill="#343A3F"/>
<path d="M169.913 157.352L183.357 165.251L187.422 174.699C190.333 181.444 191.049 188.928 189.524 196.112L184.951 217.41C168.781 217.41 162.521 223.716 147.414 223.716L143.926 178.487C143.58 173.891 145.266 169.363 148.546 166.106L157.44 157.352H169.913Z" fill="url(#paint2_linear_2145_44901)"/>
<path d="M198.627 153.075L200.105 148.363C200.913 144.967 199.897 142.288 198.188 138.915L196.155 135.173C195.947 134.78 195.97 134.318 196.224 133.949C196.386 133.718 196.663 133.602 196.917 133.602C197.194 133.602 197.449 133.718 197.633 133.949L200.29 137.645L205.164 129.052C205.418 128.59 205.995 128.428 206.457 128.659C206.804 128.821 206.988 129.167 206.988 129.537C206.988 129.652 206.965 129.791 206.919 129.906L205.349 133.649L207.543 136.051C208.282 136.859 208.721 137.876 208.79 138.938L208.998 141.756C209.067 142.611 208.906 143.466 208.513 144.251L207.589 146.145C207.196 146.954 206.919 147.808 206.781 148.686C206.781 148.686 206.134 153.052 205.302 158.596L198.627 153.075Z" fill="#93633F"/>
<path d="M171.092 346.766V360.625H184.628C187.562 360.625 189.063 357.461 185.76 355.382C182.457 353.303 180.655 352.24 180.331 346.766H171.092Z" fill="#121619"/>
<path d="M145.684 346.766V360.625H159.22C162.153 360.625 163.655 357.461 160.352 355.382C157.048 353.303 155.247 352.24 154.923 346.766H145.684Z" fill="#121619"/>
<path d="M169.914 157.351L193.175 170.31L198.603 153.078L211.746 157.559L206.988 179.18C205.163 187.496 195.877 191.723 188.393 187.635L157.209 171.211L169.89 157.351H169.914Z" fill="#FF7EB6"/>
<path d="M162.338 154.904C161.876 155.412 161.737 156.128 162.038 156.636C162.361 157.213 162.477 157.906 162.338 158.692C162.199 159.477 161.83 160.17 161.298 160.748C160.813 161.256 160.698 161.972 160.998 162.503C161.322 163.081 161.46 163.797 161.322 164.559C161.183 165.321 160.813 166.037 160.282 166.615C159.82 167.123 159.681 167.839 159.982 168.347C160.305 168.925 160.421 169.641 160.305 170.403C160.19 171.165 159.797 171.881 159.266 172.459C158.781 172.967 158.665 173.683 158.965 174.215C159.289 174.792 159.427 175.508 159.289 176.27C159.15 177.033 158.781 177.749 158.249 178.326C157.764 178.834 157.649 179.55 157.949 180.082C158.272 180.659 158.411 181.375 158.272 182.138C158.134 182.9 157.764 183.616 157.233 184.193C156.771 184.702 156.632 185.418 156.933 185.926C157.256 186.503 157.372 187.196 157.233 187.982C156.886 189.899 155.085 191.447 153.167 191.447C151.25 191.447 149.98 189.899 150.303 187.982C150.442 187.219 150.811 186.503 151.343 185.926C151.828 185.418 151.943 184.702 151.666 184.193C151.343 183.616 151.204 182.9 151.343 182.138C151.481 181.375 151.851 180.659 152.382 180.082C152.867 179.574 152.983 178.857 152.682 178.326C152.359 177.749 152.22 177.033 152.359 176.27C152.498 175.508 152.867 174.792 153.399 174.215C153.884 173.706 153.999 172.99 153.699 172.459C153.375 171.881 153.237 171.165 153.375 170.403C153.514 169.641 153.884 168.925 154.415 168.347C154.877 167.839 155.015 167.123 154.715 166.615C154.392 166.037 154.253 165.321 154.392 164.559C154.53 163.797 154.9 163.081 155.431 162.503C155.916 161.995 156.032 161.279 155.731 160.748C155.408 160.17 155.27 159.454 155.408 158.692C155.547 157.93 155.916 157.213 156.448 156.636C156.933 156.128 157.048 155.412 156.771 154.904C156.448 154.326 156.309 153.61 156.448 152.848C156.586 152.085 156.956 151.369 157.487 150.792C157.972 150.284 158.088 149.568 157.787 149.036C157.464 148.459 157.325 147.743 157.464 146.981C157.81 145.063 159.612 143.516 161.529 143.516C163.447 143.516 164.717 145.063 164.394 146.981C164.255 147.743 163.886 148.459 163.354 149.036C162.869 149.545 162.754 150.261 163.054 150.792C163.377 151.369 163.516 152.085 163.377 152.848C163.239 153.61 162.869 154.326 162.338 154.904Z" fill="#21272A"/>
<path d="M157.512 139.012C159.394 134.977 158.557 130.604 155.643 129.246C152.73 127.887 148.842 130.057 146.961 134.092C145.079 138.127 145.916 142.5 148.829 143.859C151.743 145.217 155.63 143.047 157.512 139.012Z" fill="#21272A"/>
<path d="M53.2868 240.5H496.792C499.333 240.5 501.412 242.579 501.412 245.12C501.412 250.225 497.277 254.36 492.172 254.36H57.9067C52.8018 254.36 48.667 250.225 48.667 245.12C48.667 242.579 50.7459 240.5 53.2868 240.5Z" fill="#A2A9B0"/>
<path d="M436.734 254.359V360.616H404.395L391.183 281.316C390.813 279.099 388.873 277.459 386.632 277.459H163.47C161.207 277.459 159.289 279.099 158.92 281.316L145.707 360.616H113.368V254.359H436.758H436.734Z" fill="#C1C7CD"/>
<path d="M344.223 181.918L344.87 180.232C345.17 179.308 345.332 178.361 345.262 177.391L344.916 172.956C344.87 172.54 344.939 172.124 345.101 171.755H345.077L345.609 169.976C345.794 169.329 346.394 168.867 347.064 168.821L348.45 168.752L349.72 167.851C350.598 167.227 351.822 167.551 352.261 168.521L354.71 173.857C355.264 175.058 355.079 176.444 354.248 177.46L352.585 179.47C352.169 179.978 351.407 180.856 351.083 181.803L349.836 185.291L340.388 214.95L331.495 209.707L344.246 181.941L344.223 181.918Z" fill="#E58D79"/>
<path d="M298.139 346.758V360.617H311.675C314.608 360.617 316.11 357.453 312.807 355.374C309.503 353.295 307.702 352.232 307.378 346.758H298.139Z" fill="#121619"/>
<path d="M341.727 360.617H321.331L321.238 346.758H330.478C330.801 350.777 336.368 352.787 341.312 354.15C346.116 355.466 344.361 360.617 341.727 360.617Z" fill="#121619"/>
<path d="M298.139 231.266V346.762H321.238L323.548 231.266H298.139Z" fill="url(#paint3_linear_2145_44901)"/>
<path d="M339.718 231.257V346.754H314.308V264.913C314.308 261.194 312.507 257.683 309.481 255.512L302.99 250.869C299.964 248.697 298.162 245.209 298.162 241.467V231.234H339.741L339.718 231.257Z" fill="#4A1D8B"/>
<path d="M347.779 154.911C347.479 156.02 347.294 156.898 347.132 157.591C346.924 158.515 346.97 160.686 347.04 161.148C347.109 161.61 346.878 161.887 346.462 161.957C346.046 162.026 345.816 162.072 345.816 162.072C345.816 162.072 345.515 162.118 345.238 162.673C345.076 162.973 344.337 164.544 343.667 165.976C343.021 167.385 341.381 168.055 339.925 167.524L338.678 167.062C337.384 166.6 335.998 167.362 335.698 168.702L335.398 170.041L323.548 166.576C323.548 166.576 327.613 161.726 325.673 155.905C324.564 152.832 324.726 149.321 326.435 146.249C329.531 140.659 336.599 138.626 342.212 141.745C346.971 144.401 349.142 149.876 347.779 154.911Z" fill="#E58D79"/>
<path d="M334.774 169.196L344.338 187.375L343.044 206.663L343.922 218.79C344.176 222.394 343.252 225.974 341.242 228.954L339.718 231.264H298.139L297.261 225.974C296.314 220.338 296.776 214.563 298.578 209.158L309.573 176.172C311.075 171.668 314.863 168.318 319.529 167.394L323.548 166.586L334.774 169.196Z" fill="url(#paint4_linear_2145_44901)"/>
<path d="M348.957 146.303C347.248 138.518 342.859 137.109 338.008 136.693C333.158 136.278 327.059 139.373 326.043 144.963L348.957 146.303Z" fill="url(#paint5_linear_2145_44901)"/>
<path d="M356.904 230.062C357.643 232.973 360.091 234.474 360.091 234.474L365.496 238.078C366.559 238.725 366.559 240.503 366.559 240.503H355.009C352.376 240.503 351.152 236.9 350.482 235.375C349.812 233.851 337.847 208.118 337.847 208.118L349.72 203.383L356.927 230.086L356.904 230.062Z" fill="#E58D79"/>
<path d="M348.173 153.004L325.004 150.786C324.45 150.74 324.034 150.232 324.103 149.677L324.75 143.995C324.819 143.441 325.304 143.048 325.836 143.117L348.843 145.312C349.397 145.358 349.79 145.843 349.743 146.397L349.281 152.103C349.235 152.657 348.75 153.073 348.196 153.027L348.173 153.004Z" fill="#4D5358"/>
<path d="M348.172 153.006C345.839 156.471 341.958 152.891 339.926 158.042C337.893 163.193 335.537 165.965 328.468 164.117C326.413 163.493 319.506 161.83 319.506 161.83C321.146 154.554 323.618 156.587 325.027 150.766L348.195 152.983L348.172 153.006Z" fill="#EAB2A2"/>
<path d="M349.696 203.524L342.512 176.891C340.895 170.931 334.635 167.559 328.768 169.476C323.432 171.232 320.36 176.798 321.7 182.273L328.999 211.794L349.673 203.524H349.696Z" fill="#0F62FE"/>
<path d="M517.581 323.656H522.154V293.142H517.581V323.656Z" fill="#4D5358"/>
<path d="M552.23 360.63C554.782 360.63 556.85 358.562 556.85 356.01C556.85 353.459 554.782 351.391 552.23 351.391C549.679 351.391 547.61 353.459 547.61 356.01C547.61 358.562 549.679 360.63 552.23 360.63Z" fill="#4D5358"/>
<path d="M519.891 360.63C522.443 360.63 524.511 358.562 524.511 356.01C524.511 353.459 522.443 351.391 519.891 351.391C517.34 351.391 515.271 353.459 515.271 356.01C515.271 358.562 517.34 360.63 519.891 360.63Z" fill="#4D5358"/>
<path d="M487.552 360.63C490.104 360.63 492.172 358.562 492.172 356.01C492.172 353.459 490.104 351.391 487.552 351.391C485.001 351.391 482.933 353.459 482.933 356.01C482.933 358.562 485.001 360.63 487.552 360.63Z" fill="#4D5358"/>
<path d="M526.822 300.562H512.962C511.687 300.562 510.652 301.597 510.652 302.872C510.652 304.148 511.687 305.182 512.962 305.182H526.822C528.098 305.182 529.132 304.148 529.132 302.872C529.132 301.597 528.098 300.562 526.822 300.562Z" fill="#343A3F"/>
<path d="M552.438 270.768L556.596 229.189C556.734 227.827 555.672 226.648 554.286 226.648H553.431C547.495 226.648 542.528 231.153 541.928 237.043L539.11 265.224C538.694 269.313 541.905 272.847 546.016 272.847H550.128C551.306 272.847 552.299 271.946 552.438 270.768Z" fill="#D2745A"/>
<path d="M540.68 282.078H494.482C490.654 282.078 487.552 285.181 487.552 289.008C487.552 292.835 490.654 295.938 494.482 295.938H540.68C544.507 295.938 547.61 292.835 547.61 289.008C547.61 285.181 544.507 282.078 540.68 282.078Z" fill="#D2745A"/>
<path d="M556.851 247.438L493.305 255.638C488.708 256.238 485.243 260.165 485.243 264.808V289.016C485.243 294.121 489.378 298.256 494.483 298.256H545.301" stroke="#343A3F" stroke-width="4.41096" stroke-miterlimit="10" stroke-linecap="round"/>
<path d="M553.616 258.987L555.464 240.508H557.682C559.045 240.508 560.107 241.686 559.992 243.049L558.606 256.908C558.49 258.086 557.497 258.987 556.296 258.987H553.616Z" fill="#343A3F"/>
<path d="M556.85 348.288V351.383H552.23V349.073L524.511 337.524H515.272L487.552 349.073V351.383H482.933V348.288C482.933 347.364 483.487 346.532 484.342 346.163L511.091 334.705C513.632 333.62 515.295 331.102 515.295 328.33V323.664H524.534V328.33C524.534 331.102 526.198 333.597 528.738 334.705L555.487 346.163C556.342 346.532 556.896 347.364 556.896 348.288H556.85Z" fill="#343A3F"/>
<path d="M522.201 351.391H517.581L515.271 337.531H524.511L522.201 351.391Z" fill="#343A3F"/>
<path d="M235.771 252.062V302.881" stroke="#343A3F" stroke-width="4.41096" stroke-miterlimit="10" stroke-linecap="round"/>
<path d="M245.01 323.664H249.584V302.875H245.01V323.664Z" fill="#4D5358"/>
<path d="M226.531 300.562H268.109C271.936 300.562 275.039 297.46 275.039 293.633C275.039 289.806 271.936 286.703 268.109 286.703H226.531C222.703 286.703 219.601 289.806 219.601 293.633C219.601 297.46 222.703 300.562 226.531 300.562Z" fill="#D2745A"/>
<path d="M279.659 360.623C282.21 360.623 284.279 358.554 284.279 356.003C284.279 353.451 282.21 351.383 279.659 351.383C277.107 351.383 275.039 353.451 275.039 356.003C275.039 358.554 277.107 360.623 279.659 360.623Z" fill="#4D5358"/>
<path d="M247.32 360.623C249.872 360.623 251.94 358.554 251.94 356.003C251.94 353.451 249.872 351.383 247.32 351.383C244.769 351.383 242.7 353.451 242.7 356.003C242.7 358.554 244.769 360.623 247.32 360.623Z" fill="#4D5358"/>
<path d="M214.981 360.623C217.533 360.623 219.601 358.554 219.601 356.003C219.601 353.451 217.533 351.383 214.981 351.383C212.43 351.383 210.361 353.451 210.361 356.003C210.361 358.554 212.43 360.623 214.981 360.623Z" fill="#4D5358"/>
<path d="M254.251 305.188H240.391C239.115 305.188 238.081 306.222 238.081 307.497C238.081 308.773 239.115 309.807 240.391 309.807H254.251C255.526 309.807 256.56 308.773 256.56 307.497C256.56 306.222 255.526 305.188 254.251 305.188Z" fill="#343A3F"/>
<path d="M284.279 348.288V351.383H279.659V349.073L251.94 337.524H242.7L214.981 349.073V351.383H210.361V348.288C210.361 347.364 210.916 346.532 211.77 346.163L238.519 334.705C241.06 333.62 242.723 331.102 242.723 328.33V323.664H251.963V328.33C251.963 331.102 253.626 333.597 256.167 334.705L282.916 346.163C283.771 346.532 284.325 347.364 284.325 348.288H284.279Z" fill="#343A3F"/>
<path d="M249.63 351.375H245.01L242.7 337.516H251.94L249.63 351.375Z" fill="#343A3F"/>
<path d="M217.707 273.306L214.011 236.347C213.734 233.622 215.882 231.266 218.608 231.266H251.571C257.507 231.266 262.474 235.77 263.074 241.66L265.892 269.841C266.308 273.93 263.097 277.464 258.986 277.464H222.304C219.925 277.464 217.938 275.662 217.707 273.306Z" fill="#D2745A"/>
<path d="M226.531 302.881H268.11C273.215 302.881 277.349 298.746 277.349 293.641V266.615C277.349 261.995 274.601 257.814 270.35 255.989C264.298 253.402 257.784 252.062 251.201 252.062H214.981" stroke="#343A3F" stroke-width="4.41096" stroke-miterlimit="10" stroke-linecap="round"/>
<path d="M234.431 263.604H229.811C228.541 263.604 227.386 262.565 227.247 261.294L225.792 247.435C225.653 246.164 226.577 245.125 227.848 245.125H232.468C233.738 245.125 234.893 246.164 235.032 247.435L236.487 261.294C236.626 262.565 235.702 263.604 234.431 263.604Z" fill="#343A3F"/>
<defs>
<linearGradient id="paint0_linear_2145_44901" x1="505.57" y1="255.49" x2="540.75" y2="227.378" gradientUnits="userSpaceOnUse">
<stop stop-color="#8B3FFC"/>
<stop offset="0.92" stop-color="#A56EFF"/>
</linearGradient>
<linearGradient id="paint1_linear_2145_44901" x1="139.284" y1="273.237" x2="178.206" y2="296.983" gradientUnits="userSpaceOnUse">
<stop stop-color="#343A3F"/>
<stop offset="0.89" stop-color="#21272A"/>
</linearGradient>
<linearGradient id="paint2_linear_2145_44901" x1="156.677" y1="181.144" x2="182.063" y2="220.02" gradientUnits="userSpaceOnUse">
<stop stop-color="#FF7EB6"/>
<stop offset="0.28" stop-color="#FB74AF"/>
<stop offset="0.72" stop-color="#F15B9C"/>
<stop offset="0.85" stop-color="#EE5396"/>
</linearGradient>
<linearGradient id="paint3_linear_2145_44901" x1="298.139" y1="289.014" x2="323.548" y2="289.014" gradientUnits="userSpaceOnUse">
<stop stop-color="#4A1D8B"/>
<stop offset="1" stop-color="#31135E"/>
</linearGradient>
<linearGradient id="paint4_linear_2145_44901" x1="305.346" y1="194.906" x2="357.689" y2="219.991" gradientUnits="userSpaceOnUse">
<stop offset="0.11" stop-color="#0F62FE"/>
<stop offset="1" stop-color="#0043CE"/>
</linearGradient>
<linearGradient id="paint5_linear_2145_44901" x1="326.805" y1="144.94" x2="349.165" y2="139.95" gradientUnits="userSpaceOnUse">
<stop stop-color="#343A3F"/>
<stop offset="1" stop-color="#4D5358"/>
</linearGradient>
</defs>
</svg>
